<?xml version="1.0" encoding="UTF-8" ?>
<!DOCTYPE svg PUBLIC "-//W3C//DTD SVG 1.1//EN" "http://www.w3.org/Graphics/SVG/1.1/DTD/svg11.dtd">
<svg width="382pt" height="382pt" viewBox="0 0 382 382" version="1.1" xmlns="http://www.w3.org/2000/svg">
<g id="#82c620ff">
<path fill="#82c620" opacity="1.00" d=" M 187.69 0.00 L 194.23 0.00 C 229.12 0.68 263.84 10.86 293.26 29.70 C 326.36 50.62 352.73 82.00 367.61 118.22 C 376.52 139.52 381.11 162.46 382.00 185.50 L 382.00 196.43 C 380.93 227.65 372.50 258.69 356.83 285.76 C 341.34 312.88 319.10 336.09 292.65 352.70 C 263.43 371.27 229.02 381.30 194.44 382.00 L 187.55 382.00 C 155.88 381.32 124.33 372.95 96.83 357.17 C 66.94 340.27 41.81 315.11 24.87 285.25 C 9.39 258.32 1.09 227.51 0.00 196.52 L 0.00 185.61 C 0.78 167.24 3.65 148.90 9.48 131.43 C 22.20 92.47 47.92 57.95 81.53 34.51 C 112.41 12.70 149.93 0.71 187.69 0.00 M 174.55 10.82 C 133.60 14.71 94.22 33.09 64.99 62.02 C 41.95 84.65 25.19 113.58 16.98 144.82 C 8.13 178.19 9.12 214.10 19.85 246.91 C 35.11 294.73 71.34 335.28 117.15 355.80 C 146.96 369.39 180.49 374.63 213.03 370.77 C 246.31 366.95 278.42 353.59 304.62 332.71 C 344.71 301.19 370.17 251.97 372.71 201.03 C 374.99 162.20 364.19 122.78 342.53 90.48 C 326.70 66.68 305.10 46.76 280.11 32.89 C 248.25 15.02 210.89 7.28 174.55 10.82 Z" />
<path fill="#82c620" opacity="1.00" d=" M 156.67 266.04 C 200.23 213.24 244.10 160.68 287.84 108.02 C 291.49 110.70 295.12 113.39 298.72 116.14 C 268.26 152.58 238.02 189.23 207.61 225.71 C 191.15 245.74 174.35 265.49 158.03 285.62 C 147.92 277.60 139.41 267.79 129.75 259.27 C 109.97 240.52 90.32 221.61 70.40 203.02 C 73.77 200.23 76.75 197.02 80.11 194.22 C 80.39 194.28 80.96 194.40 81.25 194.45 C 106.35 218.36 131.44 242.27 156.67 266.04 Z" />
</g>
</svg>
