<?xml version="1.0" encoding="UTF-8" ?>
<!DOCTYPE svg PUBLIC "-//W3C//DTD SVG 1.1//EN" "http://www.w3.org/Graphics/SVG/1.1/DTD/svg11.dtd">
<svg width="512pt" height="512pt" viewBox="0 0 512 512" version="1.1" xmlns="http://www.w3.org/2000/svg">
<g id="#ffffffff">
<path fill="#ffffff" opacity="1.00" d=" M 100.67 100.69 C 106.56 94.47 117.45 94.47 123.33 100.71 C 167.56 144.91 211.75 189.16 256.00 233.35 C 300.26 189.15 344.46 144.89 388.71 100.67 C 393.07 96.19 400.15 94.74 405.92 97.13 C 411.19 99.18 415.15 104.21 415.86 109.83 C 416.57 114.72 414.82 119.86 411.30 123.32 C 367.09 167.56 322.84 211.75 278.65 256.00 C 322.84 300.25 367.09 344.44 411.29 388.67 C 417.14 394.22 417.58 404.25 412.25 410.30 C 408.01 415.50 400.34 417.45 394.13 414.89 C 390.42 413.56 387.87 410.46 385.15 407.78 C 342.10 364.74 299.08 321.67 256.00 278.65 C 211.75 322.84 167.56 367.09 123.33 411.29 C 119.64 415.07 114.01 416.78 108.84 415.70 C 102.65 414.53 97.47 409.35 96.30 403.16 C 95.22 398.01 96.91 392.41 100.66 388.72 C 144.88 344.47 189.14 300.26 233.35 256.00 C 189.15 211.75 144.90 167.55 100.69 123.32 C 94.47 117.44 94.48 106.58 100.67 100.69 Z" />
</g>
</svg>
