<?xml version="1.0" encoding="UTF-8" ?>
<!DOCTYPE svg PUBLIC "-//W3C//DTD SVG 1.1//EN" "http://www.w3.org/Graphics/SVG/1.1/DTD/svg11.dtd">
<svg width="463pt" height="651pt" viewBox="0 0 463 651" version="1.1" xmlns="http://www.w3.org/2000/svg">
<g id="#de0b1cff">
<path fill="#de0b1c" opacity="1.00" d=" M 207.84 5.40 C 220.16 3.56 232.64 4.47 245.04 4.24 C 260.52 4.31 276.60 6.67 290.02 14.85 C 298.69 20.14 305.65 28.21 309.24 37.74 C 311.38 43.04 312.09 48.75 312.77 54.38 C 314.53 68.18 315.89 82.07 316.00 95.99 C 315.99 103.46 314.82 110.90 312.14 117.89 C 314.56 132.52 311.38 147.29 312.40 161.99 C 312.35 167.87 314.01 173.52 316.01 178.99 C 324.48 205.89 332.20 233.03 339.22 260.35 C 343.32 277.33 348.14 294.38 348.49 311.96 C 349.08 351.84 343.26 391.41 339.01 430.96 C 338.14 439.62 336.62 448.20 336.09 456.89 C 335.70 461.93 337.37 466.77 338.65 471.57 C 342.72 485.79 347.26 500.05 348.44 514.89 C 348.93 525.31 349.26 535.77 348.79 546.21 C 348.57 557.03 347.80 567.86 346.30 578.59 C 343.97 594.21 340.37 610.59 330.07 623.06 C 324.00 630.64 314.68 634.22 305.94 637.71 C 283.64 645.99 259.50 647.12 235.95 646.75 C 206.65 647.35 175.96 645.59 149.64 631.38 C 139.27 625.58 132.94 614.74 129.18 603.81 C 126.26 595.38 124.50 586.59 123.31 577.77 C 121.80 567.00 121.22 556.13 120.81 545.27 C 120.63 534.84 120.72 524.41 121.36 514.00 C 122.63 499.86 126.83 486.23 130.78 472.66 C 132.37 466.94 134.31 461.10 133.52 455.08 C 128.66 409.47 121.63 363.94 121.08 317.98 C 120.78 302.65 123.90 287.60 127.39 272.75 C 134.47 243.85 142.63 215.23 151.23 186.74 C 153.43 178.88 157.27 171.34 157.29 163.01 C 158.55 147.95 154.95 132.79 157.69 117.83 C 154.07 109.39 153.52 100.07 153.78 91.01 C 154.26 76.98 155.78 63.02 157.64 49.12 C 159.14 36.83 165.56 25.04 175.63 17.72 C 184.87 10.53 196.39 7.03 207.84 5.40 M 213.63 45.77 C 209.41 46.39 205.11 47.31 201.37 49.46 C 199.25 50.49 198.12 52.72 197.96 55.00 C 196.21 68.91 194.42 82.89 194.50 96.94 C 193.98 102.32 198.98 105.90 199.50 111.07 C 201.43 118.24 196.51 124.80 197.36 131.93 C 198.20 151.31 200.15 171.56 193.01 190.09 C 183.71 219.39 175.35 249.00 167.92 278.83 C 165.98 286.89 164.10 294.96 162.77 303.14 C 161.30 313.71 161.79 324.41 162.27 335.03 C 164.01 367.51 168.26 399.77 171.86 432.07 C 173.60 445.76 175.94 459.83 172.71 473.49 C 169.24 488.37 163.40 502.76 161.91 518.06 C 161.17 532.73 161.33 547.47 162.55 562.11 C 163.43 571.85 164.70 581.66 167.88 590.95 C 168.84 593.17 169.49 596.06 172.07 596.92 C 191.31 606.02 213.18 606.16 234.03 606.00 C 254.56 606.18 275.89 606.21 295.13 598.09 C 297.02 597.08 299.65 596.61 300.44 594.35 C 303.52 587.29 305.07 579.66 306.09 572.07 C 307.78 559.12 308.32 546.05 308.26 533.01 C 308.22 523.60 308.03 514.10 305.57 504.97 C 302.32 489.93 295.69 475.52 295.33 459.95 C 295.29 447.55 297.76 435.34 298.88 423.03 C 302.26 393.76 305.87 364.48 307.47 335.04 C 307.98 322.66 308.60 310.11 306.05 297.89 C 302.65 280.77 298.09 263.91 293.52 247.08 C 287.54 225.60 281.42 204.15 274.42 182.98 C 269.85 165.70 271.81 147.62 272.42 130.00 C 272.61 124.19 268.98 118.87 269.95 113.01 C 270.14 108.76 272.38 105.11 274.52 101.59 C 275.70 97.55 275.21 93.24 275.10 89.08 C 274.50 77.36 273.26 65.68 271.60 54.07 C 271.26 50.56 267.81 48.86 264.87 47.84 C 255.94 44.72 246.32 44.95 236.99 45.00 C 229.20 45.10 221.37 44.60 213.63 45.77 Z" />
</g>
<g id="#ea5b0bff">
<path fill="#ea5b0b" opacity="1.00" d=" M 51.48 120.51 C 63.60 113.28 78.22 112.71 91.96 113.00 C 106.32 112.65 121.80 113.64 133.97 122.13 C 142.16 127.70 147.59 136.98 148.71 146.80 C 150.36 160.03 152.15 173.39 151.23 186.74 C 142.63 215.23 134.47 243.85 127.39 272.75 C 124.55 262.93 121.52 253.17 118.39 243.43 C 115.23 231.23 116.53 218.48 116.97 206.05 C 117.14 201.56 114.61 197.40 115.24 192.87 C 115.07 188.14 119.69 184.79 119.04 180.01 C 118.87 170.34 117.81 160.70 116.47 151.13 C 116.36 148.71 113.74 147.92 111.86 147.22 C 103.79 144.73 95.25 145.69 86.95 145.49 C 80.70 145.53 74.07 145.51 68.35 148.35 C 66.48 149.05 66.44 151.21 66.17 152.87 C 65.09 162.23 63.84 171.62 63.98 181.06 C 63.80 185.11 67.40 188.04 67.63 192.03 C 68.52 196.45 66.22 200.57 66.01 204.91 C 66.21 217.97 67.90 231.40 64.34 244.18 C 57.48 265.27 51.46 286.63 45.90 308.11 C 43.14 319.52 39.87 331.04 40.39 342.90 C 41.08 374.44 45.96 405.69 49.22 437.02 C 51.31 455.00 40.40 471.14 40.25 488.92 C 40.26 505.08 39.67 521.72 44.74 537.29 C 45.40 540.60 48.93 541.39 51.62 542.47 C 64.56 546.95 78.47 547.01 92.02 547.00 C 101.64 547.11 111.29 546.77 120.81 545.27 C 121.22 556.13 121.80 567.00 123.31 577.77 C 108.99 579.85 94.48 579.58 80.05 579.42 C 62.12 578.98 43.60 576.38 27.86 567.23 C 18.84 561.41 14.46 550.94 11.88 540.94 C 7.51 523.03 7.51 504.44 7.84 486.12 C 8.18 472.49 12.91 459.57 16.36 446.54 C 17.25 443.39 16.97 440.11 16.60 436.91 C 14.41 418.97 12.31 401.03 10.46 383.05 C 9.14 368.73 7.75 354.38 7.99 339.98 C 7.57 325.28 11.79 311.03 15.22 296.88 C 20.66 275.90 26.62 255.05 33.28 234.42 C 35.46 221.91 32.37 209.17 34.07 196.62 C 32.94 192.79 31.71 188.95 31.60 184.91 C 31.03 171.83 32.67 158.79 34.36 145.85 C 35.74 135.33 42.32 125.80 51.48 120.51 Z" />
</g>
<g id="#f18700ff">
<path fill="#f18700" opacity="1.00" d=" M 347.15 114.66 C 357.92 112.29 369.01 113.17 379.95 112.99 C 391.01 113.19 402.46 114.97 412.04 120.81 C 417.81 124.37 422.64 129.50 425.55 135.65 C 429.24 143.18 429.22 151.75 430.33 159.89 C 431.32 172.10 433.12 184.86 428.92 196.69 C 430.64 209.06 427.56 221.60 429.61 233.95 C 436.45 255.51 442.78 277.24 448.36 299.17 C 451.30 311.28 454.71 323.44 455.00 335.98 C 455.47 365.78 451.04 395.35 447.88 424.92 C 447.37 432.06 445.08 439.30 446.62 446.45 C 450.07 459.50 454.80 472.43 455.16 486.08 C 455.49 504.81 455.51 523.84 450.82 542.11 C 448.23 551.70 443.80 561.62 435.17 567.22 C 419.43 576.40 400.87 578.97 382.93 579.42 C 370.72 579.55 358.47 579.78 346.30 578.59 C 347.80 567.86 348.57 557.03 348.79 546.21 C 361.85 547.26 375.00 547.24 388.08 546.65 C 397.93 545.91 408.27 544.79 416.99 539.82 C 419.02 536.52 419.67 532.59 420.50 528.86 C 423.00 514.71 423.12 500.25 422.62 485.92 C 421.65 473.62 416.40 462.21 414.22 450.14 C 412.47 440.49 414.58 430.76 415.60 421.16 C 418.47 394.50 422.35 367.86 422.59 341.01 C 422.89 330.63 420.06 320.56 417.71 310.55 C 412.00 288.12 405.69 265.83 398.54 243.82 C 395.15 231.18 396.76 217.94 397.00 205.03 C 396.82 200.65 394.50 196.50 395.34 192.03 C 395.57 188.04 399.22 185.11 399.02 181.05 C 399.13 171.98 397.98 162.94 396.96 153.94 C 396.54 152.00 396.88 149.26 394.64 148.35 C 387.29 144.84 378.88 145.59 370.98 145.50 C 363.42 145.57 355.34 144.93 348.38 148.43 C 346.49 149.05 346.56 151.24 346.23 152.85 C 345.15 162.21 343.92 171.61 343.98 181.06 C 343.80 185.09 347.53 187.95 347.67 191.96 C 348.49 196.41 346.35 200.57 346.04 204.93 C 346.34 217.49 347.78 230.32 344.80 242.68 C 343.01 248.59 341.10 254.47 339.22 260.35 C 332.20 233.03 324.48 205.89 316.01 178.99 C 314.01 173.52 312.35 167.87 312.40 161.99 C 313.88 152.43 313.54 142.16 318.60 133.57 C 324.34 123.06 335.70 116.88 347.15 114.66 Z" />
</g>
</svg>
