<?xml version="1.0" encoding="UTF-8" ?>
<!DOCTYPE svg PUBLIC "-//W3C//DTD SVG 1.1//EN" "http://www.w3.org/Graphics/SVG/1.1/DTD/svg11.dtd">
<svg width="382pt" height="382pt" viewBox="0 0 382 382" version="1.1" xmlns="http://www.w3.org/2000/svg">
<g id="#a51144ff">
<path fill="#a51144" opacity="1.00" d=" M 187.66 0.00 L 194.29 0.00 C 228.93 0.69 263.39 10.73 292.66 29.32 C 322.01 47.75 346.18 74.34 361.71 105.32 C 374.32 130.12 381.00 157.72 382.00 185.48 L 382.00 196.48 C 380.92 227.71 372.48 258.75 356.80 285.82 C 341.31 312.91 319.07 336.11 292.64 352.71 C 263.42 371.27 229.03 381.30 194.45 382.00 L 187.54 382.00 C 155.86 381.32 124.30 372.94 96.78 357.15 C 66.89 340.23 41.76 315.05 24.83 285.18 C 9.37 258.26 1.08 227.47 0.00 196.49 L 0.00 186.36 C 0.69 166.92 3.86 147.52 10.26 129.12 C 24.14 88.35 52.34 52.68 88.75 29.69 C 118.14 10.88 152.81 0.70 187.66 0.00 M 173.60 10.92 C 133.24 14.96 94.48 33.09 65.53 61.49 C 48.26 78.35 34.40 98.71 25.09 120.98 C 12.02 151.98 7.91 186.66 13.31 219.86 C 18.42 251.77 32.30 282.22 53.05 307.00 C 72.82 330.80 98.88 349.29 127.81 360.24 C 160.20 372.59 196.15 375.29 230.02 367.97 C 276.47 358.17 318.48 329.21 344.05 289.21 C 363.79 258.75 374.04 222.24 372.92 185.96 C 372.09 153.29 362.10 120.93 344.46 93.43 C 328.45 68.31 306.10 47.30 280.06 32.87 C 247.93 14.86 210.22 7.14 173.60 10.92 Z" />
<path fill="#a51144" opacity="1.00" d=" M 100.83 99.77 C 103.13 97.89 106.43 98.71 108.38 100.66 C 135.76 128.03 163.14 155.41 190.51 182.78 C 217.69 155.53 244.96 128.36 272.15 101.10 C 273.90 99.21 277.01 97.81 279.40 99.36 C 282.78 100.60 283.95 105.10 282.03 108.00 C 280.73 109.70 279.11 111.11 277.62 112.63 C 251.40 138.84 225.18 165.06 198.97 191.28 C 226.32 218.54 253.58 245.88 280.91 273.17 C 284.08 275.69 284.00 281.39 280.24 283.30 C 277.85 284.05 274.65 284.37 272.91 282.17 C 245.45 254.67 217.95 227.21 190.49 199.73 C 162.62 227.67 134.67 255.54 106.78 283.47 C 104.12 283.99 100.77 284.23 98.94 281.80 C 97.04 279.12 97.60 275.24 100.12 273.14 C 127.44 245.89 154.65 218.53 182.02 191.32 C 154.68 163.84 127.20 136.51 99.84 109.06 C 97.14 106.60 97.52 101.52 100.83 99.77 Z" />
</g>
</svg>
