<?xml version="1.0" encoding="UTF-8" ?>
<!DOCTYPE svg PUBLIC "-//W3C//DTD SVG 1.1//EN" "http://www.w3.org/Graphics/SVG/1.1/DTD/svg11.dtd">
<svg width="482pt" height="482pt" viewBox="0 0 482 482" version="1.1" xmlns="http://www.w3.org/2000/svg">
<g id="#ecececff">
<path fill="#ececec" opacity="1.00" d=" M 234.42 0.00 L 251.87 0.00 C 264.56 0.57 278.09 2.42 288.39 10.52 C 295.71 16.11 300.49 24.78 301.50 33.92 C 303.19 47.42 305.08 61.05 304.15 74.68 C 304.00 78.59 302.11 82.17 301.63 85.98 C 303.35 96.83 300.66 107.74 301.87 118.60 C 302.71 111.17 302.67 103.20 306.63 96.58 C 310.45 89.89 317.45 85.60 324.74 83.61 C 333.61 80.97 342.94 81.75 352.06 81.63 C 360.24 81.67 368.66 83.05 375.83 87.16 C 382.37 90.90 387.23 97.53 388.54 104.99 C 390.22 115.25 391.16 125.67 390.73 136.07 C 390.76 139.81 388.65 143.26 389.26 147.03 C 390.04 155.72 387.79 164.56 389.79 173.15 C 395.50 191.10 400.69 209.23 405.17 227.53 C 406.64 234.26 408.43 241.01 408.52 247.95 C 409.00 270.81 405.52 293.48 403.08 316.15 C 402.62 321.75 400.89 327.53 402.70 333.07 C 405.41 342.85 408.85 352.67 408.66 362.95 C 408.69 379.70 409.21 397.44 401.64 412.84 C 397.33 421.97 387.19 425.59 378.14 428.09 C 361.44 432.04 344.09 431.40 327.09 430.46 C 325.02 444.07 321.66 459.34 310.12 468.17 C 293.87 478.53 274.10 480.49 255.34 482.00 L 234.86 482.00 C 217.43 481.05 199.46 479.40 183.52 471.71 C 178.82 469.73 174.57 466.65 171.49 462.58 C 164.34 453.17 161.73 441.23 160.15 429.76 C 145.56 431.59 130.78 431.50 116.14 430.25 C 106.73 429.12 97.30 426.80 89.01 422.07 C 82.82 418.35 79.42 411.51 77.41 404.83 C 73.36 390.94 73.47 376.30 73.61 361.97 C 73.73 354.04 75.72 346.32 77.96 338.76 C 79.05 334.57 80.91 330.41 80.40 325.99 C 77.83 304.03 74.87 282.09 73.80 260.00 C 73.64 251.65 73.53 243.21 75.43 235.02 C 80.08 214.06 86.10 193.43 92.53 172.96 C 94.41 163.41 92.10 153.62 93.07 144.02 C 89.71 132.27 92.03 119.96 93.20 108.07 C 93.94 99.07 99.42 90.70 107.50 86.60 C 118.98 80.39 132.42 81.71 144.98 81.68 C 156.02 82.13 168.22 85.52 174.74 95.16 C 179.37 101.50 179.39 109.60 180.34 117.06 C 181.11 123.68 181.24 130.34 181.59 136.98 C 182.23 131.49 185.08 126.52 185.42 120.98 C 186.38 109.07 184.28 97.11 185.62 85.21 C 180.49 70.32 183.81 54.44 185.11 39.19 C 185.74 28.67 189.60 17.77 198.18 11.13 C 208.25 2.72 221.76 0.76 234.42 0.00 M 222.10 32.51 C 219.47 33.41 216.12 34.72 216.04 38.01 C 214.74 47.27 213.84 56.59 213.44 65.93 C 213.54 68.54 212.99 71.43 214.38 73.79 C 215.82 76.35 217.41 79.00 217.45 82.03 C 218.02 86.49 215.15 90.50 215.51 94.95 C 216.14 109.67 217.75 125.05 212.38 139.15 C 206.71 156.87 201.64 174.79 196.84 192.77 C 193.36 206.98 188.87 221.20 188.84 235.97 C 189.57 265.13 193.51 294.08 196.77 323.03 C 197.96 332.36 199.35 341.95 197.18 351.24 C 194.55 362.83 189.92 374.01 188.92 385.94 C 188.45 396.62 188.53 407.34 189.51 417.99 C 190.28 425.94 191.17 434.04 194.24 441.49 C 194.92 443.82 197.46 444.41 199.41 445.33 C 212.56 450.61 227.02 451.01 241.01 450.88 C 258.26 450.97 276.52 451.37 292.29 443.29 C 294.05 439.39 295.34 435.29 296.08 431.08 C 298.93 415.88 298.82 400.31 298.33 384.92 C 297.05 372.89 292.37 361.59 289.79 349.83 C 288.04 339.91 289.64 329.85 290.94 319.98 C 293.27 299.01 295.91 278.08 297.49 257.04 C 298.25 244.01 299.58 230.71 296.53 217.86 C 291.26 193.57 284.25 169.69 277.09 145.89 C 275.20 139.32 272.38 132.96 271.70 126.10 C 270.72 115.49 271.44 104.82 271.71 94.20 C 271.88 89.32 268.63 84.76 270.24 79.86 C 270.62 76.24 274.22 73.78 273.82 70.00 C 274.08 59.10 272.52 48.28 271.22 37.50 C 270.86 34.65 267.98 33.47 265.62 32.63 C 257.32 29.99 248.52 30.86 239.96 30.71 C 233.97 30.60 227.88 30.79 222.10 32.51 M 327.55 108.77 C 326.35 116.80 325.28 124.90 325.39 133.03 C 325.39 135.48 327.51 137.25 327.94 139.62 C 329.40 143.87 326.46 147.93 326.97 152.20 C 327.40 158.45 327.56 164.73 327.24 171.00 C 326.82 178.32 323.88 185.12 321.76 192.05 C 324.83 204.23 328.23 216.50 328.67 229.13 C 329.35 258.54 325.22 287.75 321.92 316.91 C 321.51 325.62 318.99 334.22 319.59 342.97 C 322.46 355.69 327.39 368.01 328.57 381.10 C 329.04 389.44 329.28 397.79 329.11 406.14 C 337.36 406.85 345.65 406.74 353.93 406.65 C 362.89 406.33 372.21 405.54 380.30 401.33 C 384.62 389.75 384.51 377.12 384.43 364.93 C 384.79 353.89 379.45 343.80 377.84 333.06 C 377.02 328.09 377.77 323.05 378.35 318.10 C 380.69 296.78 383.76 275.48 384.32 254.01 C 384.74 246.16 382.69 238.51 380.96 230.94 C 376.61 213.91 371.88 196.97 366.45 180.25 C 363.64 170.71 364.77 160.64 365.10 150.86 C 365.11 147.76 363.45 144.90 363.70 141.78 C 363.71 138.91 365.69 136.60 366.56 133.97 C 366.87 125.51 365.71 117.08 364.48 108.73 C 361.05 106.64 357.04 106.31 353.15 105.88 C 349.43 105.79 345.71 105.84 341.99 105.94 C 337.07 105.85 331.89 106.23 327.55 108.77 M 117.73 108.77 C 116.74 114.76 116.30 120.82 115.77 126.87 C 115.69 130.46 115.08 134.35 117.32 137.46 C 120.47 142.44 116.50 147.78 117.22 153.02 C 117.59 159.71 117.83 166.44 117.24 173.13 C 116.73 179.27 114.10 184.91 112.50 190.79 C 107.52 207.44 102.69 224.16 99.02 241.15 C 98.11 245.05 98.35 249.07 97.92 253.03 C 98.49 273.75 101.18 294.34 103.58 314.91 C 104.51 321.78 105.39 328.83 104.04 335.70 C 101.78 345.41 97.71 354.85 97.81 364.98 C 97.89 377.13 97.63 389.67 101.89 401.24 C 110.78 405.96 121.14 406.48 130.99 406.70 C 140.10 406.69 149.27 406.96 158.28 405.35 C 158.26 397.55 158.17 389.73 158.61 381.94 C 159.78 369.89 163.68 358.37 166.88 346.77 C 168.38 341.94 167.68 336.85 167.19 331.93 C 165.14 316.28 163.52 300.58 161.69 284.90 C 159.92 264.99 157.55 245.00 158.80 224.97 C 159.62 216.98 161.36 209.11 163.22 201.30 C 161.01 194.17 158.96 186.98 156.60 179.89 C 155.51 176.72 155.33 173.35 155.00 170.05 C 154.60 166.04 155.09 162.04 154.94 158.04 C 155.31 154.46 155.83 150.74 154.80 147.22 C 154.10 144.87 153.90 142.38 154.29 139.95 C 154.75 137.14 157.36 134.98 156.91 131.98 C 156.71 124.16 156.03 116.31 154.61 108.62 C 151.12 106.64 147.12 106.29 143.21 105.87 C 140.47 105.80 137.73 105.86 135.00 105.92 C 129.19 105.85 122.92 105.75 117.73 108.77 Z" />
</g>
</svg>
