<?xml version="1.0" encoding="UTF-8" ?>
<!DOCTYPE svg PUBLIC "-//W3C//DTD SVG 1.1//EN" "http://www.w3.org/Graphics/SVG/1.1/DTD/svg11.dtd">
<svg width="512pt" height="512pt" viewBox="0 0 512 512" version="1.1" xmlns="http://www.w3.org/2000/svg">
<g id="#5d0d43ff">
<path fill="#5d0d43" opacity="1.00" d=" M 248.49 0.00 L 263.35 0.00 C 300.30 1.25 337.02 10.22 370.08 26.86 C 421.74 52.55 464.19 96.22 488.36 148.62 C 502.97 179.87 510.76 214.12 512.00 248.55 L 512.00 263.36 C 510.67 302.03 500.88 340.46 482.76 374.70 C 454.13 429.51 405.01 473.25 347.18 495.20 C 320.48 505.51 292.01 510.91 263.43 512.00 L 248.66 512.00 C 207.72 510.63 167.08 499.67 131.36 479.55 C 78.62 450.19 36.88 401.65 15.96 345.01 C 6.19 318.95 1.05 291.27 0.00 263.49 L 0.00 248.61 C 1.48 201.38 16.07 154.60 42.26 115.23 C 73.79 67.29 121.82 30.42 176.41 12.66 C 199.66 4.95 224.04 0.96 248.49 0.00 M 248.23 34.31 C 201.49 35.76 155.43 52.70 118.83 81.78 C 73.82 117.00 43.25 170.19 36.07 226.94 C 31.61 260.73 34.98 295.57 46.10 327.80 C 65.43 384.88 109.22 433.04 164.11 457.86 C 208.09 478.11 258.82 483.10 305.95 472.12 C 344.84 463.23 381.09 443.40 409.76 415.70 C 440.27 386.42 462.21 348.27 471.86 307.08 C 482.31 263.13 478.95 215.95 462.10 174.01 C 441.28 121.34 399.41 77.44 347.82 54.09 C 316.78 39.83 282.36 33.08 248.23 34.31 Z" />
</g>
<g id="#000000ff">
<path fill="#000000" opacity="1.00" d=" M 233.99 119.97 C 233.66 116.72 236.89 114.46 239.86 114.49 C 250.26 114.38 260.66 114.48 271.06 114.44 C 273.51 114.33 276.20 115.17 277.53 117.37 C 278.34 119.82 278.03 122.46 278.10 125.01 C 278.07 161.31 278.09 197.61 278.08 233.91 C 316.09 233.97 354.11 233.82 392.12 233.98 C 395.34 233.70 397.52 236.92 397.50 239.85 C 397.60 250.24 397.50 260.64 397.54 271.03 C 397.65 273.49 396.84 276.20 394.62 277.53 C 391.85 278.38 388.89 278.00 386.04 278.07 C 350.06 278.06 314.07 278.06 278.08 278.07 C 278.03 316.10 278.18 354.13 278.01 392.15 C 278.28 395.41 274.98 397.56 272.03 397.50 C 261.67 397.59 251.31 397.50 240.95 397.55 C 238.49 397.65 235.78 396.83 234.47 394.61 C 233.61 391.82 234.00 388.84 233.93 385.97 C 233.94 350.00 233.94 314.03 233.93 278.07 C 195.93 278.02 157.93 278.15 119.94 278.01 C 116.68 278.32 114.44 275.06 114.48 272.09 C 114.39 261.73 114.48 251.36 114.44 241.00 C 114.32 238.52 115.15 235.77 117.41 234.46 C 119.85 233.66 122.48 233.96 125.02 233.90 C 161.32 233.93 197.63 233.91 233.93 233.91 C 233.98 195.93 233.85 157.95 233.99 119.97 Z" />
</g>
</svg>
