<?xml version="1.0" encoding="UTF-8" ?>
<!DOCTYPE svg PUBLIC "-//W3C//DTD SVG 1.1//EN" "http://www.w3.org/Graphics/SVG/1.1/DTD/svg11.dtd">
<svg width="512pt" height="512pt" viewBox="0 0 512 512" version="1.1" xmlns="http://www.w3.org/2000/svg">
<g id="#5d0d43ff">
<path fill="#5d0d43" opacity="1.00" d=" M 248.39 0.00 L 263.55 0.00 C 300.43 1.29 337.09 10.25 370.08 26.86 C 422.18 52.77 464.90 96.97 488.97 149.94 C 503.18 180.80 510.75 214.52 512.00 248.43 L 512.00 263.57 C 510.63 301.93 500.98 340.04 483.10 374.05 C 454.28 429.62 404.42 473.89 345.74 495.75 C 319.51 505.69 291.61 510.90 263.61 512.00 L 248.51 512.00 C 207.88 510.60 167.55 499.80 132.04 479.93 C 79.43 450.84 37.65 402.70 16.49 346.41 C 6.39 319.98 1.08 291.85 0.00 263.61 L 0.00 248.47 C 0.99 222.98 5.33 197.59 13.65 173.45 C 32.97 116.42 73.25 66.91 124.97 36.13 C 162.13 13.76 205.08 1.45 248.39 0.00 M 248.23 34.31 C 201.50 35.76 155.44 52.70 118.83 81.78 C 77.04 114.53 47.59 162.71 37.98 214.97 C 31.57 249.06 33.24 284.67 42.99 317.97 C 59.60 375.87 101.11 425.95 154.74 453.31 C 197.46 475.51 247.58 482.90 294.93 474.37 C 337.00 467.01 376.66 446.92 407.71 417.65 C 437.25 390.00 459.08 354.14 469.80 315.11 C 482.66 268.90 479.99 218.49 462.08 173.98 C 441.28 121.37 399.48 77.51 347.97 54.16 C 316.88 39.85 282.41 33.07 248.23 34.31 Z" />
</g>
<g id="#000000ff">
<path fill="#000000" opacity="1.00" d=" M 117.38 234.47 C 120.17 233.59 123.15 233.99 126.03 233.91 C 214.36 233.93 302.68 233.91 391.01 233.92 C 394.62 233.28 397.63 236.41 397.50 239.91 C 397.56 250.63 397.56 261.36 397.50 272.09 C 397.63 275.60 394.60 278.72 390.99 278.06 C 301.01 278.07 211.03 278.07 121.05 278.06 C 117.44 278.73 114.37 275.63 114.48 272.11 C 114.39 261.72 114.48 251.33 114.44 240.94 C 114.32 238.49 115.17 235.79 117.38 234.47 Z" />
</g>
</svg>
