<?xml version="1.0" encoding="UTF-8" ?>
<!DOCTYPE svg PUBLIC "-//W3C//DTD SVG 1.1//EN" "http://www.w3.org/Graphics/SVG/1.1/DTD/svg11.dtd">
<svg width="606pt" height="247pt" viewBox="0 0 606 247" version="1.1" xmlns="http://www.w3.org/2000/svg">
<g id="#ffffffff">
<path fill="#ffffff" opacity="1.00" d=" M 121.20 0.00 L 126.09 0.00 C 131.29 1.31 136.42 4.69 138.02 10.06 C 139.48 15.78 138.72 22.01 135.97 27.24 C 133.61 31.80 130.89 36.83 125.99 39.04 C 123.18 40.19 118.86 40.24 117.56 36.89 C 115.37 28.71 122.30 18.68 131.03 19.05 C 131.39 18.59 132.12 17.66 132.48 17.20 C 132.99 13.28 130.29 9.01 125.99 9.30 C 118.38 9.48 111.50 13.52 105.12 17.31 C 91.72 26.26 80.79 38.34 70.46 50.59 C 53.51 71.53 38.75 94.83 30.99 120.82 C 26.58 135.26 23.82 151.62 30.36 165.84 C 33.86 173.78 41.78 178.30 49.58 181.15 C 56.45 183.52 63.85 183.93 71.04 183.15 C 85.29 181.66 99.07 177.59 112.98 174.34 C 134.19 169.44 155.17 162.72 177.04 161.50 C 189.85 160.80 202.95 161.32 215.23 165.35 C 223.64 167.94 231.36 172.35 238.47 177.47 C 247.23 183.79 256.03 190.40 262.72 198.99 C 247.85 188.49 229.27 182.55 211.02 184.56 C 202.79 185.41 195.34 190.41 190.94 197.34 C 185.86 188.75 177.66 182.12 168.07 179.25 C 157.13 175.55 145.33 175.85 133.97 176.91 C 118.25 178.57 103.19 183.62 87.85 187.15 C 76.33 189.93 64.77 192.70 52.98 194.02 C 40.70 195.23 27.74 192.63 17.64 185.31 C 11.43 180.65 6.30 174.36 3.70 166.99 C 1.65 161.13 0.43 154.98 0.00 148.78 L 0.00 141.16 C 1.39 120.07 8.79 99.72 19.31 81.50 C 34.31 55.46 55.31 32.94 79.98 15.81 C 92.50 7.99 106.24 1.07 121.20 0.00 Z" />
<path fill="#ffffff" opacity="1.00" d=" M 605.74 0.00 L 606.00 0.00 L 606.00 1.57 C 604.22 3.42 602.87 5.61 601.61 7.84 C 591.12 24.56 575.85 38.45 557.72 46.41 C 545.37 51.92 531.37 54.16 518.07 51.14 C 522.15 45.21 527.06 39.92 531.57 34.32 C 537.36 34.32 543.23 34.83 548.96 33.65 C 558.92 32.09 568.35 28.11 577.08 23.15 C 587.68 16.91 597.73 9.38 605.74 0.00 Z" />
<path fill="#ffffff" opacity="1.00" d=" M 350.21 32.23 C 365.69 18.45 383.62 6.69 403.90 1.51 C 411.74 -0.51 421.14 0.18 427.05 6.31 C 435.05 3.32 443.36 0.57 452.00 0.63 C 464.85 0.63 476.76 6.14 487.56 12.61 C 495.83 17.18 504.03 21.89 512.00 26.96 L 511.69 28.00 C 507.23 32.95 502.17 37.40 498.19 42.79 C 497.04 42.38 495.92 41.92 494.82 41.43 C 493.98 40.86 493.14 40.30 492.30 39.74 C 476.22 30.17 461.49 17.33 442.93 12.77 C 438.97 12.13 434.05 10.92 430.58 13.31 C 431.49 25.94 427.06 38.14 421.32 49.18 C 415.18 59.07 408.32 69.13 398.24 75.38 C 393.85 77.81 388.84 80.46 383.68 79.07 C 380.78 78.34 378.99 75.82 377.77 73.27 C 377.13 70.54 376.46 67.78 376.83 64.96 C 381.92 44.52 395.95 27.31 412.71 15.04 C 415.15 13.10 418.08 11.82 420.27 9.56 C 411.64 6.98 403.56 12.19 396.44 16.39 C 372.34 31.41 354.48 54.10 337.71 76.58 C 323.68 97.53 310.43 119.86 305.40 144.88 C 303.86 152.60 302.38 160.91 305.36 168.49 C 307.68 174.84 314.15 179.79 321.06 179.25 C 325.97 178.76 330.52 176.51 334.55 173.76 C 345.10 166.64 353.13 156.41 359.79 145.71 C 360.29 144.87 360.80 144.04 361.31 143.21 C 362.96 140.16 364.52 137.07 365.80 133.86 C 366.61 131.94 367.36 130.01 368.01 128.04 C 368.33 126.98 368.64 125.92 368.97 124.86 C 369.39 123.24 369.64 121.58 369.98 119.94 C 370.74 115.96 371.29 111.43 369.21 107.75 C 366.21 104.49 360.94 106.51 358.09 109.03 C 351.66 114.82 347.55 122.77 344.76 130.86 C 343.64 133.56 344.49 137.98 340.90 138.78 C 332.21 143.06 325.10 149.70 318.16 156.31 C 320.28 136.92 327.93 116.82 343.66 104.45 C 350.07 99.68 357.82 95.74 366.01 96.25 C 371.57 96.79 375.23 101.93 376.00 107.14 C 376.89 111.30 376.87 115.69 375.90 119.83 C 375.64 121.53 375.43 123.25 375.00 124.92 C 374.63 126.21 374.31 127.50 373.94 128.79 C 373.60 129.81 373.26 130.83 372.91 131.85 C 372.07 133.96 371.17 136.03 370.30 138.12 C 369.05 140.85 367.73 143.54 366.31 146.18 C 366.03 146.66 365.49 147.62 365.21 148.10 C 358.16 160.59 348.83 171.77 337.78 180.91 C 330.18 186.84 321.78 192.48 312.00 193.76 C 302.06 195.83 291.10 191.95 285.13 183.64 C 276.63 172.37 276.30 157.21 278.91 143.88 C 279.29 142.55 279.58 141.19 279.89 139.84 C 284.99 121.64 293.12 104.39 303.26 88.46 C 316.25 67.69 331.98 48.61 350.21 32.23 M 397.18 38.34 C 391.14 46.35 385.45 54.97 382.77 64.75 C 382.72 66.26 382.70 67.76 382.67 69.27 C 384.02 73.44 389.21 73.82 392.49 71.75 C 400.79 66.86 407.48 59.61 412.89 51.72 C 419.97 40.96 424.87 28.18 424.51 15.16 C 413.76 20.63 404.72 29.01 397.18 38.34 Z" />
<path fill="#ffffff" opacity="1.00" d=" M 546.13 5.09 C 550.14 3.21 554.70 1.69 559.15 2.76 C 561.21 3.28 562.24 5.21 563.40 6.79 C 563.81 11.23 563.56 15.73 561.93 19.93 C 561.21 21.57 560.48 23.21 559.73 24.84 C 558.88 28.92 554.53 29.27 551.10 29.66 C 552.93 26.20 554.64 22.68 556.31 19.15 C 557.49 16.32 557.76 13.26 557.57 10.22 C 553.39 9.59 550.06 12.67 547.00 15.03 C 537.03 23.75 527.61 33.14 519.51 43.65 C 505.37 61.60 493.13 80.99 481.77 100.80 C 480.47 103.17 479.16 105.54 477.85 107.91 C 477.15 109.22 476.44 110.52 475.74 111.82 C 474.23 114.62 473.02 117.57 471.28 120.25 C 472.69 120.62 473.71 119.33 474.82 118.70 C 487.91 109.00 499.16 97.13 510.43 85.44 C 519.22 75.88 527.75 66.07 535.45 55.60 C 537.55 55.49 539.65 55.37 541.76 55.25 C 532.45 69.44 521.04 82.12 509.50 94.50 C 497.06 107.68 483.60 119.95 468.83 130.48 C 463.14 133.53 462.53 140.66 459.73 145.87 C 459.23 147.31 458.69 148.73 458.20 150.18 C 457.71 151.41 457.26 152.65 456.77 153.88 C 456.63 154.45 456.35 155.60 456.21 156.18 C 455.69 157.73 455.26 159.31 454.78 160.87 C 454.50 162.24 454.28 163.63 453.78 164.93 C 453.20 167.98 453.29 171.09 453.54 174.17 C 454.82 175.88 456.84 177.49 459.07 176.37 C 463.11 174.03 466.05 170.29 468.98 166.76 C 475.45 158.39 480.60 149.11 486.59 140.40 C 496.74 125.32 508.04 110.34 523.51 100.34 C 528.11 97.16 533.94 95.27 539.52 96.60 C 543.01 97.43 544.75 100.81 546.99 103.26 C 547.93 101.65 548.85 100.02 549.74 98.37 C 556.15 98.32 562.55 98.36 568.96 98.34 C 568.38 99.89 567.59 101.36 566.73 102.76 C 566.26 103.60 565.80 104.45 565.36 105.30 C 564.84 106.18 564.32 107.07 563.81 107.95 C 562.14 110.93 560.49 113.91 558.79 116.87 C 558.52 117.34 557.99 118.29 557.72 118.77 C 556.90 120.25 556.08 121.73 555.27 123.21 C 555.00 123.69 554.44 124.64 554.17 125.11 C 552.69 127.69 551.26 130.30 549.80 132.88 C 549.52 133.36 548.97 134.31 548.69 134.78 C 542.53 146.70 534.64 157.67 529.04 169.88 C 528.08 171.66 528.03 173.69 528.48 175.63 C 532.11 176.08 534.66 173.07 537.35 171.15 C 546.19 163.70 552.33 153.73 558.80 144.29 C 560.91 144.07 563.03 144.19 565.16 144.23 C 557.47 157.09 548.47 169.27 538.01 180.02 C 532.61 185.66 526.08 190.21 518.90 193.29 C 515.23 194.89 510.23 194.74 507.50 191.49 C 504.62 187.78 505.05 182.74 505.64 178.36 C 500.30 184.25 494.13 189.63 486.85 192.97 C 482.62 194.93 477.13 194.72 473.60 191.45 C 471.24 189.29 470.59 186.03 469.80 183.09 C 469.67 180.36 469.73 177.62 469.77 174.89 C 464.74 181.15 459.18 187.18 452.24 191.35 C 448.33 193.63 443.36 195.42 439.00 193.35 C 434.41 191.12 431.47 186.10 431.31 181.06 C 430.63 170.00 434.72 159.43 438.07 149.08 C 438.38 148.07 438.70 147.07 439.03 146.08 C 439.39 145.08 440.11 143.09 440.47 142.10 C 438.24 142.32 436.03 142.56 433.81 142.78 C 432.44 143.01 431.08 143.22 429.72 143.36 C 419.60 160.86 408.10 178.73 390.54 189.60 C 385.10 192.92 378.08 196.06 371.83 193.09 C 367.28 190.89 365.50 185.79 364.78 181.13 C 364.37 177.04 365.47 173.04 365.88 168.99 C 366.32 167.68 366.60 166.32 366.95 164.98 C 367.27 163.94 367.59 162.90 367.89 161.86 C 369.31 157.78 370.95 153.77 372.80 149.86 C 377.47 139.98 383.76 130.98 390.54 122.45 C 398.41 112.54 407.93 103.53 419.60 98.31 C 424.48 96.10 430.51 95.06 435.49 97.47 C 440.31 100.57 441.31 106.78 441.18 112.07 C 440.36 115.40 440.25 118.86 439.11 122.11 C 437.43 127.17 435.35 132.09 433.07 136.91 C 435.41 136.88 437.75 136.65 440.05 136.14 C 441.03 135.75 442.04 135.39 443.06 135.07 C 444.47 132.77 445.62 130.33 446.76 127.89 C 447.01 127.40 447.52 126.40 447.77 125.90 C 448.02 125.41 448.51 124.41 448.76 123.91 C 449.02 123.42 449.54 122.42 449.80 121.93 C 450.05 121.43 450.56 120.44 450.82 119.95 C 451.06 119.44 451.55 118.44 451.79 117.94 C 452.28 117.02 452.78 116.11 453.28 115.20 C 454.41 113.04 455.56 110.89 456.71 108.74 C 456.97 108.26 457.49 107.29 457.74 106.81 C 458.26 105.94 458.78 105.07 459.31 104.21 C 460.99 100.99 462.88 97.89 464.70 94.75 C 464.98 94.29 465.54 93.35 465.82 92.89 C 480.85 68.06 498.50 44.59 519.92 24.89 C 527.91 17.40 536.27 10.04 546.13 5.09 M 420.68 108.82 C 416.83 111.99 413.98 116.80 414.34 121.92 C 414.83 128.72 420.52 134.45 427.01 135.95 C 429.40 131.55 431.49 126.99 433.14 122.26 C 434.77 117.02 435.64 110.93 433.10 105.85 C 428.87 103.09 423.98 105.94 420.68 108.82 M 533.17 109.06 C 524.94 115.93 518.06 124.27 512.07 133.12 C 505.49 143.22 498.65 153.36 494.82 164.90 C 494.75 165.55 494.59 166.86 494.51 167.51 C 494.34 167.60 493.98 167.77 493.81 167.85 C 493.97 169.98 493.24 172.43 494.69 174.26 C 495.90 175.75 498.15 175.61 499.70 174.76 C 505.72 171.50 509.43 165.55 513.27 160.12 C 524.36 143.69 533.37 125.99 543.49 108.98 C 542.53 107.85 541.87 105.99 540.06 106.15 C 537.42 105.96 535.17 107.57 533.17 109.06 M 404.08 132.06 C 397.15 142.46 390.26 153.45 387.93 165.91 C 387.20 169.58 388.58 174.62 392.83 175.29 C 397.85 175.17 401.79 171.50 405.26 168.25 C 412.82 160.58 418.90 151.50 423.66 141.86 C 421.82 140.89 420.01 139.89 418.22 138.84 C 414.16 135.98 410.33 132.58 408.07 128.06 C 405.97 128.28 405.33 130.70 404.08 132.06 Z" />
<path fill="#ffffff" opacity="1.00" d=" M 119.03 50.33 C 123.99 48.05 129.75 47.49 135.02 48.96 C 137.78 50.59 139.74 53.14 140.99 56.07 C 142.52 62.76 141.21 69.65 139.09 76.06 C 138.43 77.74 137.81 79.43 137.27 81.14 C 136.69 82.37 136.11 83.61 135.51 84.83 C 139.13 85.19 142.22 83.00 145.17 81.22 C 151.24 77.08 156.94 72.35 161.82 66.84 C 167.79 60.68 174.33 54.93 181.91 50.83 C 187.79 47.86 194.96 47.13 201.14 49.61 C 206.15 52.76 208.41 59.23 206.81 64.87 C 204.98 72.06 201.30 79.66 194.60 83.41 C 192.23 85.00 189.60 83.72 187.62 82.19 C 184.94 75.82 189.64 69.19 194.79 65.74 C 195.81 65.44 196.83 65.12 197.83 64.79 C 198.52 64.77 199.90 64.74 200.59 64.72 C 201.45 62.74 201.18 60.67 200.39 58.73 C 197.81 56.83 194.64 57.50 191.90 58.60 C 191.38 58.89 190.35 59.46 189.83 59.74 C 178.57 68.28 169.79 79.68 162.81 91.87 C 162.54 92.36 162.00 93.34 161.72 93.82 C 158.22 100.24 155.42 107.00 152.78 113.80 C 151.52 117.49 151.31 121.39 151.64 125.26 C 152.64 127.52 153.54 130.13 155.94 131.27 C 159.54 132.55 163.63 131.82 166.91 129.99 C 174.75 125.85 180.62 118.99 186.51 112.54 C 197.67 100.12 205.91 85.44 216.95 72.93 C 224.33 64.43 232.38 56.11 242.40 50.74 C 246.57 48.36 251.48 47.67 256.17 48.58 C 256.68 48.86 257.69 49.41 258.19 49.69 C 259.65 50.79 260.92 52.12 261.94 53.65 C 262.23 53.57 262.80 53.41 263.08 53.34 C 263.60 52.39 264.12 51.44 264.66 50.51 C 271.05 50.62 277.44 50.47 283.83 50.60 C 279.02 58.58 274.55 66.76 269.80 74.77 C 268.48 77.13 267.15 79.47 265.79 81.80 C 264.82 83.53 263.83 85.25 262.84 86.96 C 261.50 89.27 260.18 91.60 258.84 93.91 C 258.56 94.38 257.99 95.32 257.71 95.79 C 257.26 96.62 256.80 97.46 256.35 98.29 C 255.84 99.18 255.33 100.07 254.82 100.96 C 254.55 101.41 254.02 102.31 253.76 102.76 C 252.79 104.48 251.82 106.19 250.83 107.89 C 250.55 108.37 249.98 109.32 249.69 109.80 C 248.76 111.50 247.80 113.18 246.82 114.85 C 246.53 115.34 245.96 116.30 245.68 116.78 C 244.87 118.26 244.03 119.72 243.14 121.14 C 242.27 122.81 242.40 124.69 242.50 126.51 C 243.75 126.54 245.02 126.53 246.28 126.47 C 257.26 119.07 265.24 108.17 272.96 97.60 C 275.20 97.57 277.44 97.58 279.68 97.61 C 267.44 114.97 254.75 133.20 236.15 144.29 C 234.46 144.92 232.77 145.56 231.09 146.22 C 229.62 146.27 228.16 146.33 226.70 146.38 C 224.02 145.50 221.50 143.69 220.44 140.99 C 219.18 137.90 219.88 134.51 219.81 131.29 C 215.53 136.62 210.14 141.06 204.14 144.33 C 202.17 145.02 200.19 145.67 198.22 146.33 C 196.15 146.41 194.06 146.40 192.03 145.97 C 187.86 144.52 184.97 140.57 184.75 136.18 C 184.12 131.06 186.25 126.24 186.85 121.23 C 178.84 129.12 170.85 137.38 160.84 142.74 C 154.78 145.72 147.80 147.30 141.09 145.94 C 132.79 143.12 128.83 134.12 129.10 125.85 C 128.44 122.60 129.45 119.30 129.97 116.10 C 130.54 114.36 131.13 112.63 131.66 110.89 C 132.18 109.62 132.68 108.36 133.20 107.09 C 135.34 101.78 137.98 96.69 140.69 91.64 C 140.95 91.31 141.48 90.66 141.74 90.33 C 138.40 90.93 135.14 91.89 131.83 92.60 C 126.48 101.50 121.42 110.62 115.00 118.82 C 107.85 127.41 100.09 135.73 90.57 141.73 C 85.37 144.88 79.24 147.54 73.06 145.99 C 70.93 144.89 68.67 143.79 67.21 141.80 C 65.09 139.01 64.65 135.43 63.79 132.13 C 63.72 130.04 63.72 127.94 63.80 125.85 C 64.63 121.16 65.41 116.45 66.94 111.92 C 67.58 110.25 68.20 108.57 68.79 106.89 C 74.12 93.83 82.19 82.06 91.55 71.57 C 99.46 63.09 108.27 54.99 119.03 50.33 M 117.96 63.79 C 115.04 67.25 113.29 72.09 114.74 76.55 C 117.03 81.97 122.77 84.99 128.40 85.61 C 130.74 80.94 132.75 76.11 134.18 71.08 C 134.73 67.65 134.76 64.17 134.36 60.72 C 133.24 59.19 132.27 56.96 129.98 57.25 C 124.93 56.50 120.92 60.21 117.96 63.79 M 253.02 57.78 C 252.49 58.02 251.43 58.51 250.90 58.75 C 244.46 62.50 240.41 68.92 235.73 74.49 C 225.53 87.52 215.69 101.24 210.06 116.94 C 209.10 120.29 207.20 124.26 209.90 127.31 C 211.37 127.36 212.98 127.90 214.34 127.09 C 217.94 124.87 221.22 122.10 223.78 118.73 C 230.46 110.12 235.61 100.49 241.15 91.14 C 241.43 90.66 242.00 89.71 242.28 89.23 C 245.46 83.76 248.58 78.26 251.69 72.75 C 252.19 71.89 252.69 71.03 253.20 70.18 C 255.01 67.10 256.48 63.80 258.65 60.95 C 258.63 59.32 257.50 58.32 256.29 57.43 C 255.47 57.51 253.84 57.69 253.02 57.78 M 104.01 83.08 C 97.24 93.24 90.75 103.97 88.01 116.00 C 87.20 119.60 87.51 124.02 90.69 126.41 C 95.41 127.96 99.71 124.80 103.08 121.88 C 112.34 113.45 119.17 102.71 124.94 91.71 C 117.94 89.57 111.05 85.44 107.70 78.69 C 105.97 79.67 105.10 81.51 104.01 83.08 Z" />
<path fill="#ffffff" opacity="1.00" d=" M 287.21 67.32 C 290.60 61.70 293.84 55.95 297.59 50.57 C 303.60 50.53 309.62 50.51 315.64 50.61 C 312.03 56.10 308.79 61.82 305.21 67.33 C 299.21 67.31 293.21 67.34 287.21 67.32 Z" />
<path fill="#ffffff" opacity="1.00" d=" M 126.45 211.68 C 132.79 209.98 140.15 211.46 144.75 216.32 C 151.46 222.91 151.33 235.01 144.47 241.45 C 140.02 246.03 133.03 247.41 126.94 245.97 C 119.63 244.34 113.82 237.52 113.62 229.98 C 112.77 221.80 118.47 213.64 126.45 211.68 M 128.04 217.12 C 122.34 218.84 118.70 225.25 119.96 231.05 C 120.83 236.73 126.31 241.25 132.07 241.01 C 138.64 240.82 144.11 234.52 143.51 228.01 C 143.37 220.57 135.18 214.43 128.04 217.12 Z" />
<path fill="#ffffff" opacity="1.00" d=" M 538.82 212.83 C 545.05 209.54 553.29 210.86 558.57 215.37 C 557.49 216.78 556.45 218.22 555.41 219.66 C 552.05 217.53 547.97 216.01 543.95 216.83 C 542.06 217.13 540.05 218.90 540.53 220.98 C 540.53 222.93 542.36 224.01 543.99 224.55 C 548.62 226.21 554.12 226.53 557.65 230.36 C 561.17 234.97 559.58 242.55 554.20 245.01 C 547.11 248.34 538.49 246.02 532.76 241.04 C 533.99 239.47 535.26 237.93 536.54 236.39 C 540.24 239.42 545.13 241.88 550.01 240.56 C 552.61 239.88 554.28 236.77 552.53 234.44 C 548.43 231.08 542.55 231.74 538.20 228.80 C 532.47 225.48 532.98 215.79 538.82 212.83 Z" />
<path fill="#ffffff" opacity="1.00" d=" M 15.00 212.00 C 23.01 212.00 31.02 212.00 39.02 212.00 C 39.00 213.85 38.98 215.70 38.92 217.56 C 32.86 217.44 26.81 217.53 20.75 217.50 C 20.75 220.42 20.75 223.33 20.75 226.25 C 26.26 226.25 31.76 226.24 37.26 226.26 C 37.25 228.08 37.25 229.91 37.25 231.75 C 31.75 231.76 26.25 231.75 20.76 231.75 C 20.75 234.67 20.75 237.58 20.75 240.50 C 27.00 240.50 33.25 240.49 39.50 240.50 C 39.50 242.33 39.50 244.16 39.50 246.00 C 31.33 246.00 23.17 246.00 15.00 246.00 C 15.00 234.67 15.00 223.33 15.00 212.00 Z" />
<path fill="#ffffff" opacity="1.00" d=" M 45.00 212.00 C 47.00 212.00 49.00 212.00 51.00 212.00 C 51.06 218.68 50.88 225.37 51.07 232.06 C 51.12 236.32 54.37 240.71 58.88 240.77 C 63.40 241.39 67.57 237.58 67.88 233.14 C 68.17 226.10 67.91 219.05 68.00 212.00 C 70.00 212.00 72.00 212.00 74.00 212.00 C 73.99 218.66 74.01 225.32 74.01 231.98 C 74.08 236.39 72.36 241.04 68.70 243.69 C 61.20 249.38 47.96 246.35 45.68 236.58 C 44.26 228.49 45.33 220.18 45.00 212.00 Z" />
<path fill="#ffffff" opacity="1.00" d=" M 81.44 212.09 C 88.11 212.16 94.90 211.43 101.50 212.59 C 111.62 214.38 111.58 231.22 101.93 233.75 C 104.67 237.94 107.79 241.85 110.60 245.99 C 108.04 246.00 105.49 246.00 102.93 246.01 C 100.27 242.24 97.58 238.50 94.89 234.74 C 92.43 234.75 89.97 234.75 87.51 234.76 C 87.50 238.48 87.47 242.20 87.56 245.93 C 85.52 245.99 83.49 246.00 81.46 245.96 C 81.51 234.67 81.55 223.38 81.44 212.09 M 87.50 217.26 C 87.51 221.25 87.49 225.25 87.52 229.25 C 91.36 229.12 95.28 229.64 99.06 228.75 C 104.02 227.75 104.37 218.68 99.21 217.80 C 95.37 216.96 91.40 217.31 87.50 217.26 Z" />
<path fill="#ffffff" opacity="1.00" d=" M 155.46 212.06 C 161.79 212.24 168.26 211.31 174.48 212.72 C 184.66 214.98 185.06 232.24 175.12 235.10 C 170.73 236.50 166.04 236.22 161.50 236.25 C 161.50 239.51 161.50 242.76 161.50 246.02 C 159.48 246.00 157.46 245.98 155.44 245.92 C 155.54 234.64 155.52 223.35 155.46 212.06 M 161.50 217.25 C 161.50 221.75 161.50 226.24 161.50 230.74 C 165.49 230.56 169.83 231.45 173.52 229.50 C 177.34 226.81 177.08 219.07 171.99 217.94 C 168.57 217.01 164.99 217.28 161.50 217.25 Z" />
<path fill="#ffffff" opacity="1.00" d=" M 187.44 245.92 C 187.58 234.61 187.43 223.30 187.53 211.99 C 195.52 212.02 203.51 211.99 211.50 212.00 C 211.50 213.83 211.50 215.66 211.50 217.50 C 205.50 217.50 199.50 217.50 193.50 217.51 C 193.50 220.42 193.50 223.33 193.50 226.25 C 198.92 226.25 204.34 226.24 209.75 226.25 C 209.75 228.08 209.75 229.91 209.75 231.75 C 204.34 231.75 198.92 231.75 193.50 231.75 C 193.50 234.67 193.50 237.58 193.50 240.50 C 199.75 240.50 206.00 240.49 212.25 240.50 C 212.25 242.33 212.25 244.17 212.25 246.00 C 203.98 245.95 195.71 246.09 187.44 245.92 Z" />
<path fill="#ffffff" opacity="1.00" d=" M 228.26 212.00 C 230.44 212.00 232.62 212.00 234.81 212.02 C 239.72 223.37 244.82 234.64 249.72 245.99 C 247.56 246.00 245.41 246.00 243.26 246.00 C 242.16 243.50 241.06 241.00 239.96 238.50 C 234.33 238.50 228.70 238.50 223.08 238.50 C 222.01 241.01 220.90 243.50 219.80 245.98 C 217.63 246.00 215.45 246.00 213.28 246.01 C 218.30 234.68 223.31 223.35 228.26 212.00 M 231.40 219.62 C 229.52 224.01 227.51 228.34 225.67 232.75 C 229.61 232.75 233.55 232.73 237.50 232.77 C 235.33 228.44 233.81 223.82 231.40 219.62 Z" />
<path fill="#ffffff" opacity="1.00" d=" M 253.00 212.00 C 255.01 212.00 257.03 212.00 259.05 212.00 C 265.52 220.32 271.97 228.66 278.47 236.95 C 278.51 228.65 278.53 220.34 278.46 212.04 C 280.49 212.00 282.52 212.01 284.56 212.07 C 284.45 223.36 284.49 234.65 284.54 245.94 C 282.30 245.99 280.07 246.00 277.83 246.01 C 271.58 237.92 265.34 229.83 259.02 221.79 C 258.97 229.86 259.01 237.93 259.00 246.00 C 257.00 246.00 255.00 246.00 253.00 246.00 C 253.00 234.67 253.00 223.33 253.00 212.00 Z" />
<path fill="#ffffff" opacity="1.00" d=" M 304.45 245.92 C 304.58 234.61 304.43 223.30 304.53 211.98 C 311.04 212.38 317.76 211.13 324.13 212.91 C 333.83 215.67 333.88 232.45 324.10 235.13 C 319.70 236.46 315.04 236.24 310.50 236.25 C 310.50 239.51 310.50 242.76 310.50 246.02 C 308.48 246.00 306.46 245.98 304.45 245.92 M 310.50 217.25 C 310.50 221.75 310.50 226.24 310.50 230.74 C 314.68 230.49 319.46 231.65 323.14 229.13 C 325.85 226.40 326.03 220.62 322.49 218.49 C 318.72 216.85 314.49 217.32 310.50 217.25 Z" />
<path fill="#ffffff" opacity="1.00" d=" M 329.91 246.02 C 334.93 234.69 339.91 223.34 344.91 212.00 C 347.07 212.19 349.52 211.54 351.52 212.36 C 356.53 223.53 361.43 234.77 366.35 245.99 C 364.18 246.00 362.02 246.00 359.85 246.00 C 358.81 243.49 357.70 241.02 356.64 238.52 C 350.99 238.48 345.35 238.51 339.71 238.51 C 338.64 240.94 337.55 243.38 336.59 245.86 C 334.36 246.00 332.13 246.01 329.91 246.02 M 342.26 232.75 C 346.19 232.75 350.12 232.74 354.06 232.77 C 352.12 228.27 350.04 223.84 348.17 219.31 C 346.23 223.80 344.21 228.26 342.26 232.75 Z" />
<path fill="#ffffff" opacity="1.00" d=" M 369.45 212.07 C 376.34 212.26 383.41 211.24 390.19 212.80 C 399.79 215.29 399.16 231.31 389.84 233.88 C 392.80 237.88 395.70 241.94 398.59 246.00 C 396.01 246.00 393.43 246.00 390.85 246.00 C 388.27 242.20 385.52 238.52 382.90 234.75 C 380.43 234.75 377.97 234.75 375.51 234.75 C 375.50 238.49 375.48 242.22 375.54 245.95 C 373.51 245.99 371.48 245.99 369.45 245.94 C 369.53 234.65 369.53 223.36 369.45 212.07 M 375.50 217.26 C 375.50 221.25 375.49 225.25 375.52 229.25 C 379.35 229.12 383.26 229.64 387.03 228.76 C 391.48 227.81 392.19 220.69 388.66 218.31 C 384.49 216.68 379.87 217.41 375.50 217.26 Z" />
<path fill="#ffffff" opacity="1.00" d=" M 399.98 212.00 C 408.90 212.00 417.83 211.99 426.76 212.01 C 426.75 213.84 426.75 215.67 426.75 217.51 C 423.24 217.50 419.73 217.48 416.22 217.54 C 416.29 227.02 416.23 236.51 416.25 245.99 C 414.34 246.00 412.43 246.00 410.52 246.01 C 410.46 236.51 410.51 227.01 410.50 217.51 C 407.02 217.50 403.55 217.48 400.07 217.55 C 400.01 215.70 399.99 213.85 399.98 212.00 Z" />
<path fill="#ffffff" opacity="1.00" d=" M 431.47 212.04 C 433.53 212.00 435.59 212.00 437.66 212.08 C 444.02 220.46 450.52 228.72 457.00 237.00 C 457.00 228.66 457.00 220.33 457.00 212.00 C 458.99 212.00 460.99 212.00 463.00 212.00 C 463.00 223.33 463.00 234.67 463.00 246.00 C 460.76 246.00 458.53 246.00 456.30 245.99 C 450.06 237.93 443.86 229.84 437.52 221.85 C 437.47 229.91 437.52 237.96 437.50 246.02 C 435.48 246.00 433.46 245.99 431.45 245.93 C 431.54 234.63 431.51 223.33 431.47 212.04 Z" />
<path fill="#ffffff" opacity="1.00" d=" M 471.00 212.00 C 479.00 212.00 487.01 212.00 495.02 212.00 C 495.00 213.84 494.98 215.69 494.95 217.54 C 488.88 217.47 482.82 217.51 476.75 217.50 C 476.75 220.42 476.75 223.33 476.75 226.24 C 482.25 226.26 487.76 226.22 493.26 226.27 C 493.25 228.08 493.25 229.90 493.27 231.72 C 487.77 231.79 482.26 231.73 476.75 231.75 C 476.75 234.67 476.75 237.58 476.75 240.50 C 483.00 240.50 489.25 240.49 495.50 240.50 C 495.49 242.33 495.50 244.17 495.50 246.00 C 487.33 246.00 479.17 246.00 471.00 246.00 C 471.00 234.67 471.00 223.33 471.00 212.00 Z" />
<path fill="#ffffff" opacity="1.00" d=" M 501.45 212.07 C 506.99 211.98 512.54 211.92 518.08 212.06 C 522.03 212.34 526.70 213.92 528.08 218.05 C 529.16 221.50 529.17 225.47 527.73 228.82 C 526.65 231.32 524.12 232.58 521.93 233.93 C 524.63 238.07 527.67 241.97 530.52 246.00 C 527.94 246.00 525.37 246.00 522.80 246.00 C 520.12 242.25 517.42 238.50 514.77 234.73 C 512.35 234.75 509.92 234.75 507.50 234.76 C 507.50 238.51 507.51 242.27 507.48 246.03 C 505.47 246.00 503.46 245.99 501.46 245.95 C 501.51 234.65 501.53 223.36 501.45 212.07 M 507.50 217.26 C 507.50 221.25 507.49 225.25 507.51 229.24 C 511.32 229.14 515.21 229.61 518.97 228.75 C 523.86 227.63 524.29 218.95 519.20 217.83 C 515.36 216.97 511.39 217.30 507.50 217.26 Z" />
</g>
</svg>
