<?xml version="1.0" encoding="utf-8"?>
<!-- Generator: Adobe Illustrator 24.0.1, SVG Export Plug-In . SVG Version: 6.00 Build 0)  -->
<svg version="1.1"
	 id="Layer_1" xmlns:cc="http://creativecommons.org/ns#" xmlns:dc="http://purl.org/dc/elements/1.1/" xmlns:inkscape="http://www.inkscape.org/namespaces/inkscape" xmlns:rdf="http://www.w3.org/1999/02/22-rdf-syntax-ns#" xmlns:sodipodi="http://sodipodi.sourceforge.net/DTD/sodipodi-0.dtd" xmlns:svg="http://www.w3.org/2000/svg"
	 xmlns="http://www.w3.org/2000/svg" xmlns:xlink="http://www.w3.org/1999/xlink" x="0px" y="0px" viewBox="0 0 100 125"
	 style="enable-background:new 0 0 100 125;" xml:space="preserve">
<style type="text/css">
	.st0{fill:#FFFFFF;}
</style>
<g transform="translate(0,-952.36218)">
	<path class="st0" d="M25.7,965.3c-0.7,0.1-1.3,0.4-1.8,0.8l-18,17c-1.2,1.1-1.3,3-0.1,4.2c0,0,0.1,0.1,0.1,0.1l18,17
		c1.1,1.3,3,1.4,4.2,0.3c1.3-1.1,1.4-3,0.3-4.2c-0.1-0.2-0.3-0.3-0.4-0.4l-12.5-11.8H65c13.7,0,24,9.9,24,23c0,13-10.2,23-24,23H8
		c-1.7,0-3,1.3-3,3c0,1.7,1.3,3,3,3c0,0,0.1,0,0.1,0h57c16.7,0,30-12.8,30-29c0-16.3-13.2-29-30-29H15.5L28,970.5
		c1.2-1.1,1.3-3,0.2-4.2C27.6,965.6,26.6,965.2,25.7,965.3z"/>
</g>
</svg>
