<?xml version="1.0" encoding="UTF-8" ?>
<!DOCTYPE svg PUBLIC "-//W3C//DTD SVG 1.1//EN" "http://www.w3.org/Graphics/SVG/1.1/DTD/svg11.dtd">
<svg width="474pt" height="417pt" viewBox="0 0 474 417" version="1.1" xmlns="http://www.w3.org/2000/svg">
<g id="#ffffffff">
<path fill="#ffffff" opacity="1.00" d=" M 0.00 15.50 C 0.65 7.84 7.13 0.84 15.02 0.66 C 41.74 0.48 68.47 0.72 95.19 0.54 C 102.35 0.81 109.59 5.57 111.17 12.83 C 113.67 24.47 116.68 36.00 118.86 47.71 C 150.90 47.34 182.96 47.93 215.00 47.36 C 264.99 47.36 314.98 47.36 364.98 47.36 C 396.31 47.90 427.66 47.41 458.99 47.66 C 466.75 47.98 473.32 54.72 474.00 62.37 L 474.00 65.94 C 469.93 79.91 466.22 94.00 462.59 108.10 C 453.67 141.65 444.80 175.21 436.20 208.85 C 434.31 214.24 433.99 220.51 429.92 224.88 C 426.72 228.54 421.72 230.05 416.98 230.00 C 335.32 230.02 253.65 230.00 171.99 230.01 C 167.18 230.02 162.36 229.90 157.55 230.17 C 160.28 240.55 162.04 251.15 164.57 261.58 C 243.39 261.63 322.22 261.58 401.04 261.61 C 408.04 261.52 414.57 266.67 416.40 273.38 C 419.53 283.15 411.24 294.14 401.02 293.95 C 321.34 294.07 241.65 293.97 161.97 294.00 C 156.29 293.77 150.18 294.90 144.91 292.20 C 140.42 290.24 137.79 285.99 135.36 281.98 L 135.72 280.72 C 135.48 280.64 135.02 280.50 134.79 280.43 C 134.65 278.59 134.38 276.77 133.85 275.01 C 133.70 273.82 133.55 272.64 133.42 271.46 L 132.60 271.56 C 132.59 270.11 132.59 268.67 132.59 267.23 L 131.55 267.78 C 131.59 266.24 131.62 264.71 131.66 263.18 L 130.69 263.82 C 130.78 259.80 129.95 255.87 129.01 251.99 C 128.36 249.16 127.68 246.33 127.25 243.46 L 126.70 243.71 C 126.60 241.81 126.39 239.92 125.80 238.11 C 125.06 233.38 124.09 228.68 123.02 224.01 C 122.63 222.63 122.25 221.25 121.79 219.89 C 121.64 218.43 121.49 216.97 121.36 215.51 L 120.72 215.63 C 120.55 213.76 120.33 211.89 119.94 210.05 C 119.06 205.33 118.21 200.58 116.74 196.00 C 116.67 195.12 116.51 193.35 116.43 192.46 C 116.25 192.49 115.90 192.54 115.72 192.56 C 115.61 190.69 115.43 188.82 114.89 187.02 C 114.23 182.29 113.21 177.62 111.93 173.02 C 111.37 169.97 110.67 166.94 109.88 163.95 C 109.03 157.57 107.48 151.31 105.89 145.08 C 104.63 138.74 103.55 132.36 101.98 126.09 C 101.64 124.72 101.32 123.36 100.95 122.01 C 100.62 120.35 100.33 118.70 99.92 117.07 C 98.58 109.32 96.88 101.63 94.86 94.03 C 93.98 87.64 92.46 81.35 90.99 75.07 C 90.65 73.72 90.34 72.38 89.97 71.04 C 88.51 63.31 87.08 55.55 84.95 47.96 C 84.16 42.97 83.04 38.05 82.12 33.08 C 60.05 32.85 37.97 33.13 15.90 32.95 C 7.87 32.97 0.85 26.25 0.00 18.36 L 0.00 15.50 M 125.31 80.08 C 125.56 81.02 125.83 81.96 126.11 82.89 C 126.42 84.54 126.69 86.21 127.13 87.83 C 127.71 90.86 128.39 93.87 129.14 96.86 C 130.01 101.55 131.04 106.22 132.10 110.88 C 133.07 115.55 134.01 120.23 135.11 124.88 C 135.71 127.90 136.35 130.93 137.07 133.93 C 137.41 135.57 137.71 137.23 138.12 138.86 C 138.73 141.89 139.37 144.90 140.08 147.91 C 140.41 149.55 140.70 151.21 141.13 152.83 C 141.73 155.87 142.38 158.89 143.08 161.91 C 144.03 166.58 145.03 171.24 146.09 175.89 C 146.43 177.54 146.73 179.20 147.15 180.83 C 147.74 183.85 148.39 186.87 149.11 189.87 C 149.59 192.43 150.20 194.98 150.71 197.54 C 208.16 197.69 265.61 197.55 323.06 197.61 C 350.49 197.04 377.94 197.51 405.37 197.50 C 406.15 194.28 407.13 191.11 407.89 187.89 C 409.06 183.97 409.92 179.98 411.10 176.06 C 411.29 175.27 411.67 173.70 411.86 172.91 C 412.27 171.61 412.57 170.27 412.92 168.95 C 413.31 167.65 413.59 166.31 413.93 164.99 C 414.24 163.94 414.55 162.89 414.85 161.84 C 415.22 160.55 415.49 159.22 415.80 157.92 C 416.19 156.59 416.50 155.24 416.80 153.90 C 418.35 148.67 419.68 143.37 421.13 138.11 C 421.45 136.80 421.77 135.48 422.16 134.19 C 422.73 131.97 423.38 129.77 423.74 127.51 L 424.33 127.41 C 424.42 126.11 424.52 124.82 424.62 123.53 L 425.29 123.49 C 425.43 122.30 425.60 121.12 425.78 119.94 C 427.19 116.06 427.89 111.98 429.13 108.05 C 429.31 107.26 429.67 105.69 429.85 104.91 C 430.34 103.39 430.75 101.85 431.25 100.33 C 431.47 99.16 431.71 97.99 431.96 96.82 C 434.72 95.54 432.86 92.20 433.73 89.93 C 434.62 87.64 435.25 85.26 435.72 82.85 C 436.04 81.94 436.36 81.03 436.69 80.11 C 434.45 80.02 432.21 79.98 429.98 79.99 C 328.42 80.06 226.87 79.89 125.31 80.08 Z" />
<path fill="#ffffff" opacity="1.00" d=" M 174.83 318.56 C 187.98 312.40 203.90 312.54 216.94 318.92 C 228.36 324.37 237.54 334.37 241.90 346.26 C 245.96 356.37 245.71 367.75 243.11 378.18 C 240.63 385.11 237.08 391.62 232.15 397.12 C 228.77 400.51 225.08 403.55 221.13 406.24 C 218.74 407.48 216.31 408.63 213.84 409.67 C 212.62 410.15 211.41 410.64 210.21 411.16 C 208.89 411.47 207.57 411.81 206.27 412.20 C 203.55 412.51 200.83 412.75 198.12 413.14 C 193.65 413.28 189.22 412.68 184.81 412.15 C 172.28 408.89 160.74 401.26 153.83 390.18 C 145.61 377.60 143.73 361.15 148.85 347.02 C 153.19 334.54 162.81 324.03 174.83 318.56 M 191.43 344.67 C 183.33 346.79 177.10 354.52 177.03 362.93 C 176.41 373.38 185.60 383.05 196.06 382.97 C 207.20 383.60 217.20 373.03 215.91 361.93 C 215.40 350.19 202.67 341.26 191.43 344.67 Z" />
<path fill="#ffffff" opacity="1.00" d=" M 327.88 318.54 C 341.04 312.39 356.97 312.55 370.01 318.95 C 381.81 324.60 391.17 335.12 395.39 347.51 C 398.63 356.00 398.58 365.33 397.20 374.20 C 396.80 375.51 396.45 376.83 396.11 378.16 C 395.73 379.26 395.39 380.38 395.10 381.52 L 394.67 381.61 C 393.81 384.24 392.51 386.69 391.28 389.16 C 389.55 391.57 387.68 393.88 386.12 396.41 L 385.69 396.43 C 385.40 396.75 384.81 397.40 384.52 397.73 L 384.42 398.18 C 384.09 398.42 383.43 398.88 383.10 399.12 C 382.86 399.38 382.39 399.92 382.16 400.19 C 379.59 402.35 376.90 404.36 374.16 406.29 C 371.70 407.53 369.23 408.79 366.61 409.69 L 366.56 410.11 C 365.42 410.39 364.30 410.74 363.20 411.15 C 359.29 412.44 355.16 412.59 351.11 413.13 C 346.66 413.31 342.24 412.70 337.84 412.13 C 325.29 408.89 313.73 401.25 306.83 390.17 C 298.62 377.61 296.74 361.20 301.82 347.09 C 306.16 334.56 315.81 324.01 327.88 318.54 M 344.45 344.67 C 338.54 346.30 333.43 350.76 331.32 356.54 C 328.13 364.40 330.92 374.12 337.80 379.08 C 344.59 384.39 354.99 384.25 361.64 378.75 C 368.48 373.53 370.91 363.53 367.38 355.71 C 363.78 347.06 353.47 342.07 344.45 344.67 Z" />
</g>
</svg>
