<?xml version="1.0" encoding="utf-8"?>
<!-- Generator: Adobe Illustrator 24.0.1, SVG Export Plug-In . SVG Version: 6.00 Build 0)  -->
<svg version="1.1"
	 id="Layer_1" xmlns:cc="http://creativecommons.org/ns#" xmlns:dc="http://purl.org/dc/elements/1.1/" xmlns:inkscape="http://www.inkscape.org/namespaces/inkscape" xmlns:rdf="http://www.w3.org/1999/02/22-rdf-syntax-ns#" xmlns:sodipodi="http://sodipodi.sourceforge.net/DTD/sodipodi-0.dtd" xmlns:svg="http://www.w3.org/2000/svg"
	 xmlns="http://www.w3.org/2000/svg" xmlns:xlink="http://www.w3.org/1999/xlink" x="0px" y="0px" viewBox="0 0 100 125"
	 style="enable-background:new 0 0 100 125;" xml:space="preserve">
<style type="text/css">
	.st0{fill:#FFFFFF;}
</style>
<g transform="translate(0,-952.36218)">
	<path class="st0" d="M7,962.4c-1.1,0-2,0.9-2,2s0.9,2,2,2h12.4l10.5,49.8c-0.1,1.1,1,2.2,2.1,2.2h50c1.1,0,2-0.9,2-2s-1-2-2-2H33.6
		l-1.7-8H86c0.9,0,1.7-0.7,1.9-1.6l7-30c0.3-1.2-0.7-2.4-1.9-2.4H24.8L23,964c-0.2-0.9-1.1-1.6-2-1.6H7z M25.6,976.4h64.9l-6.1,26
		H31.1L25.6,976.4z M42,1024.4c-4.9,0-9,4.1-9,9s4.1,9,9,9s9-4.1,9-9C51,1028.4,47,1024.4,42,1024.4z M72,1024.4c-4.9,0-9,4.1-9,9
		s4.1,9,9,9s9-4.1,9-9C81,1028.4,77,1024.4,72,1024.4z M42,1028.4c2.8,0,5,2.2,5,5s-2.2,5-5,5s-5-2.2-5-5S39.2,1028.4,42,1028.4z
		 M72,1028.4c2.8,0,5,2.2,5,5s-2.2,5-5,5s-5-2.2-5-5S69.2,1028.4,72,1028.4z"/>
</g>
</svg>
