<?xml version="1.0" encoding="UTF-8" ?>
<!DOCTYPE svg PUBLIC "-//W3C//DTD SVG 1.1//EN" "http://www.w3.org/Graphics/SVG/1.1/DTD/svg11.dtd">
<svg width="512pt" height="203pt" viewBox="0 0 512 203" version="1.1" xmlns="http://www.w3.org/2000/svg">
<g id="#ea4335ff">
<path fill="#ea4335" opacity="1.00" d=" M 82.52 0.00 L 89.06 0.00 C 108.33 0.91 127.19 8.72 141.23 21.98 C 133.20 30.02 125.15 38.04 117.11 46.06 C 105.87 35.27 89.15 31.08 74.05 34.62 C 57.01 38.36 42.64 51.75 37.31 68.31 C 27.98 61.01 18.59 53.79 9.24 46.52 C 14.96 35.12 23.32 25.07 33.46 17.34 C 47.46 6.58 64.90 0.54 82.52 0.00 Z" />
</g>
<g id="#5f6368ff">
<path fill="#5f6368" opacity="1.00" d=" M 223.28 11.75 C 240.54 11.74 257.80 11.71 275.06 11.76 C 294.51 11.85 313.34 25.87 318.11 44.87 C 320.60 55.30 319.51 66.76 314.17 76.16 C 306.66 89.37 292.23 98.39 276.99 99.01 C 265.39 99.30 253.78 99.05 242.17 99.14 C 242.21 118.93 242.08 138.72 242.24 158.51 C 235.93 158.88 229.60 158.56 223.28 158.66 C 223.27 109.69 223.28 60.72 223.28 11.75 M 242.18 29.81 C 242.17 46.91 242.17 64.02 242.18 81.13 C 253.45 81.09 264.73 81.24 276.00 81.05 C 288.55 80.56 299.54 69.49 300.08 56.97 C 301.12 43.09 288.94 29.83 275.00 29.82 C 264.06 29.77 253.12 29.81 242.18 29.81 Z" />
<path fill="#5f6368" opacity="1.00" d=" M 353.15 55.58 C 367.71 53.57 384.11 55.46 395.47 65.62 C 404.15 73.10 408.11 84.76 408.06 95.99 C 408.12 116.88 408.09 137.77 408.08 158.66 C 402.07 158.67 396.05 158.66 390.04 158.67 C 389.98 153.89 390.09 149.11 389.97 144.33 C 387.20 146.79 385.37 150.13 382.51 152.53 C 367.84 166.36 342.52 164.46 328.53 150.58 C 316.47 139.27 315.56 118.05 327.08 106.06 C 334.34 98.43 344.79 94.70 355.10 93.79 C 366.93 92.78 379.41 93.81 390.02 99.55 C 390.40 93.32 389.45 86.66 385.30 81.73 C 379.55 74.64 370.17 70.74 361.07 71.82 C 352.06 72.31 343.91 77.64 338.91 85.01 C 333.36 81.51 327.80 78.03 322.27 74.52 C 329.30 64.19 340.78 57.22 353.15 55.58 M 355.49 109.78 C 347.13 111.93 338.32 118.50 338.48 127.95 C 338.29 137.30 347.34 143.81 355.86 144.91 C 372.61 147.23 389.99 133.00 390.03 115.90 C 388.18 113.67 385.21 112.58 382.62 111.40 C 374.01 108.28 364.40 107.70 355.49 109.78 Z" />
<path fill="#5f6368" opacity="1.00" d=" M 411.18 58.14 C 418.02 58.14 424.87 58.12 431.71 58.15 C 441.80 82.31 451.69 106.56 461.90 130.68 C 471.80 106.55 481.45 82.31 491.25 58.14 C 498.10 58.13 504.96 58.12 511.81 58.15 C 490.77 106.43 469.79 154.74 448.71 203.00 L 429.21 203.00 C 437.07 186.12 444.85 169.20 452.65 152.29 C 438.82 120.91 424.99 89.52 411.18 58.14 Z" />
</g>
<g id="#fbbc04ff">
<path fill="#fbbc04" opacity="1.00" d=" M 9.23 122.32 C -2.72 98.92 -2.75 69.91 9.24 46.52 C 18.59 53.79 27.98 61.01 37.31 68.31 C 33.71 78.67 33.79 90.21 37.28 100.58 C 27.93 107.82 18.59 115.09 9.23 122.32 Z" />
</g>
<g id="#4285f4ff">
<path fill="#4285f4" opacity="1.00" d=" M 84.70 69.21 C 111.26 69.20 137.82 69.20 164.37 69.20 C 166.78 83.74 166.24 98.85 162.16 113.04 C 158.34 126.48 150.96 138.96 140.67 148.47 C 131.64 141.38 122.51 134.41 113.46 127.36 C 122.25 121.51 128.42 112.05 130.36 101.68 C 115.14 101.64 99.92 101.69 84.70 101.65 C 84.70 90.84 84.69 80.02 84.70 69.21 Z" />
</g>
<g id="#34a853ff">
<path fill="#34a853" opacity="1.00" d=" M 9.23 122.32 C 18.59 115.09 27.93 107.82 37.28 100.58 C 42.99 117.99 58.62 131.89 76.81 134.75 C 89.35 136.62 102.80 134.43 113.46 127.36 C 122.51 134.41 131.64 141.38 140.67 148.47 C 118.58 168.75 84.95 173.71 56.99 164.14 C 36.45 157.09 18.94 141.75 9.23 122.32 Z" />
</g>
</svg>
