<?xml version="1.0" encoding="UTF-8" ?>
<!DOCTYPE svg PUBLIC "-//W3C//DTD SVG 1.1//EN" "http://www.w3.org/Graphics/SVG/1.1/DTD/svg11.dtd">
<svg width="1322pt" height="831pt" viewBox="0 0 1322 831" version="1.1" xmlns="http://www.w3.org/2000/svg">
<g id="#1b1d74ff">
<path fill="#1b1d74" opacity="1.00" d=" M 20.31 24.84 C 21.52 24.70 22.74 24.60 23.96 24.54 C 324.97 24.55 625.99 24.54 927.00 24.54 C 1053.99 24.60 1180.99 24.42 1307.99 24.63 C 1308.09 83.09 1308.00 141.54 1308.03 200.00 C 1307.94 211.57 1308.22 223.16 1307.89 234.73 C 935.59 234.81 563.30 234.74 191.00 234.76 C 134.12 234.73 77.24 234.84 20.36 234.71 C 20.41 164.75 20.51 94.80 20.31 24.84 Z" />
<path fill="#1b1d74" opacity="1.00" d=" M 759.99 271.81 C 784.89 267.50 810.80 268.08 835.19 274.98 C 856.48 281.07 877.02 290.55 894.60 304.13 C 885.84 315.13 876.38 325.57 867.36 336.37 C 861.97 342.43 857.08 348.93 851.39 354.71 C 836.99 342.96 820.79 332.13 802.11 329.03 C 790.49 327.26 777.97 327.80 767.41 333.45 C 761.56 336.56 756.83 341.96 755.37 348.52 C 753.46 354.44 755.82 360.77 759.53 365.45 C 763.70 370.64 768.98 374.80 774.41 378.60 C 791.68 390.30 810.24 400.22 826.16 413.83 C 837.97 423.82 848.60 435.64 855.31 449.70 C 860.84 461.20 862.88 474.40 860.70 487.00 C 859.26 496.28 855.39 504.94 851.21 513.28 C 845.05 525.42 836.93 536.65 826.72 545.72 C 811.26 559.69 791.22 567.85 770.78 571.04 C 748.40 574.62 725.47 574.20 703.05 571.21 C 673.21 567.10 644.38 556.19 618.93 540.18 C 631.33 521.13 643.81 502.12 656.26 483.10 C 670.24 490.76 683.58 499.88 698.80 505.04 C 713.29 509.93 728.72 511.81 743.98 511.40 C 753.72 511.01 764.05 508.25 770.84 500.83 C 775.79 495.27 779.91 487.89 778.64 480.19 C 777.50 474.65 773.54 470.23 769.38 466.64 C 761.45 459.90 752.30 454.85 743.36 449.61 C 727.93 440.10 712.77 429.92 699.58 417.41 C 688.38 406.54 678.77 393.12 675.74 377.53 C 672.36 360.47 676.45 342.90 683.12 327.14 C 688.16 314.59 696.66 303.64 707.01 295.01 C 722.08 282.56 740.86 275.18 759.99 271.81 Z" />
<path fill="#1b1d74" opacity="1.00" d=" M 576.53 275.41 C 602.70 275.19 628.88 275.31 655.04 275.35 C 652.83 284.36 649.66 293.11 647.09 302.02 C 621.18 387.73 595.11 473.40 569.16 559.10 C 568.53 561.19 567.80 563.26 567.07 565.33 C 541.01 565.33 514.95 565.48 488.90 565.25 C 490.28 558.29 492.82 551.65 494.80 544.85 C 522.02 455.03 549.20 365.19 576.53 275.41 Z" />
<path fill="#1b1d74" opacity="1.00" d=" M 204.17 283.50 C 204.61 280.82 205.31 278.19 206.02 275.58 C 249.04 275.39 292.05 275.57 335.07 275.49 C 336.31 275.58 338.61 275.11 338.37 277.14 C 340.16 305.09 342.14 333.03 343.92 360.98 C 345.73 383.98 346.50 407.03 348.16 430.04 C 348.56 437.69 348.59 445.36 349.07 453.00 C 349.28 457.56 348.45 462.11 348.94 466.66 C 350.82 463.31 351.56 459.52 352.93 455.97 C 359.37 438.75 369.22 423.15 378.04 407.11 C 402.46 364.23 427.18 321.52 451.67 278.69 C 452.65 277.12 453.69 274.92 455.94 275.49 C 482.43 275.60 508.92 275.33 535.40 275.62 C 531.87 282.85 527.62 289.68 523.70 296.69 C 474.88 382.87 426.01 469.03 377.15 555.18 C 375.20 558.62 373.46 562.19 371.09 565.36 C 344.04 565.29 316.98 565.49 289.94 565.26 C 284.25 516.44 279.13 467.56 273.49 418.73 C 270.36 391.25 267.33 363.76 264.34 336.26 C 262.21 320.93 256.09 305.21 243.73 295.27 C 232.71 286.31 218.06 283.45 204.17 283.50 Z" />
<path fill="#1b1d74" opacity="1.00" d=" M 1012.31 276.23 C 1047.24 276.09 1082.17 276.14 1117.10 276.20 C 1124.51 353.81 1131.02 431.48 1138.31 509.10 C 1139.76 527.84 1142.12 546.50 1142.96 565.28 C 1118.30 565.49 1093.63 565.24 1068.97 565.40 C 1067.09 565.42 1065.23 565.29 1063.40 565.00 C 1062.32 550.81 1062.25 536.55 1061.03 522.37 C 1028.50 522.40 995.96 522.31 963.42 522.42 C 957.30 535.34 951.41 548.38 945.37 561.34 C 944.40 563.09 943.66 566.00 941.05 565.37 C 913.50 565.27 885.94 565.51 858.40 565.25 C 864.03 553.21 870.81 541.74 876.92 529.93 C 922.03 445.35 967.18 360.79 1012.31 276.23 M 1018.43 406.34 C 1009.13 427.07 999.26 447.55 990.19 468.37 C 1012.86 468.55 1035.55 468.55 1058.22 468.37 C 1056.10 420.85 1051.87 373.32 1053.83 325.72 C 1042.88 352.95 1030.14 379.43 1018.43 406.34 Z" />
</g>
<g id="#e59703ff">
<path fill="#e59703" opacity="1.00" d=" M 20.51 605.44 C 371.34 605.62 722.17 605.47 1073.00 605.52 C 1151.30 605.49 1229.61 605.57 1307.91 605.48 C 1308.10 675.58 1308.00 745.69 1307.96 815.80 C 961.98 815.77 615.99 815.79 270.00 815.79 C 186.79 815.72 103.57 815.92 20.35 815.68 C 20.49 745.60 20.18 675.51 20.51 605.44 Z" />
</g>
</svg>
